Road To Wacken The Movie Mp4 720p AAC Multichannel

The plot is focus on Princess of the Night, a Spanish heavy metal band, entirely formed by girls , all of them from a small city, without more hopes or dreams than the music they use to play in nasty bars. Even though, they win the Metal Battle, the Wacken Open Air contest they organize every year in 26 countries to give new and emerging bands the opportunity to play at the biggest heavy music festival of the world. So the story begins at the last Princess of the Night gig in their city before start their travel to Wacken, and at least try to achieve their dream. The band members, young, pretty and cheeky, with their clumsy manager, lead us across this road movie where we can enjoy the Wacken Open Air 2010 bands live shows, with mythical names as Alice Cooper, Soulfly, Edguy, Grave Digger, Stratovarius, etc and collaboration of Blind Guardian, Helloween or Doro.

Track List:
1.Road To Wacken - The Movie
2.Performances By
3.Grave Digger - The Ballad Of Mary
4.Grave Digger - Rebellion
5.Overkill - The Green And Black
6.Edguy - Lavatory Love Machine
7.Edguy - Tears Of A Mandrake
8.Skyline - Wacken Hymne (We Are The Metalheads)
9.Skyline - Harder, Faster, Louder
10.Atrocity - The Great Commandment
11.Udo - Man And Machine
12.Stratovarius - Hunting High And Low
13.The Bosshoss - Stallion Battalion


General
Road To Wacken The Movie Mp4 720p AAC Multichannel
Format : MPEG-4
Format profile : Base Media
Codec ID : isom
File size : 1.71 GiB
Duration : 1h 21mn
Overall bit rate mode : Variable
Overall bit rate : 2 992 Kbps
Encoded date : UTC 2013-01-04 23:20:12
Tagged date : UTC 2013-01-04 23:20:12

Video
ID : 1
Format : AVC
Format/Info : Advanced Video Codec
Format profile : High@L4.0
Format settings, CABAC : Yes
Format settings, ReFrames : 3 frames
Codec ID : avc1
Codec ID/Info : Advanced Video Coding
Duration : 1h 21mn
Bit rate mode : Variable
Bit rate : 2 668 Kbps
Maximum bit rate : 25.0 Mbps
Width : 1 280 pixels
Height : 720 pixels
Display aspect ratio : 16:9
Frame rate mode : Constant
Frame rate : 23.976 fps
Color space : YUV
Chroma subsampling : 4:2:0
Bit depth : 8 bits
Scan type : Progressive
Bits/(Pixel*Frame) : 0.121
Stream size : 1.53 GiB (89%)
Title : Road To Wacken The Movie Mp4 1080p AAC Multichannel
Writing library : x264 core 125 r2208 d9d2288
Encoding settings : cabac=1 / ref=3 / deblock=1:0:0 / analyse=0x3:0x113 / me=hex / subme=7 / psy=1 / psy_rd=1.00:0.00 / mixed_ref=1 / me_range=16 / chroma_me=1 / trellis=1 / 8x8dct=1 / cqm=0 / deadzone=21,11 / fast_pskip=1 / chroma_qp_offset=-2 / threads=12 / lookahead_threads=2 / sliced_threads=0 / nr=0 / decimate=1 / interlaced=0 / bluray_compat=0 / constrained_intra=0 / bframes=3 / b_pyramid=0 / b_adapt=1 / b_bias=0 / direct=1 / weightb=1 / open_gop=0 / weightp=2 / keyint=240 / keyint_min=24 / scenecut=40 / intra_refresh=0 / rc_lookahead=40 / rc=crf / mbtree=1 / crf=24.0 / qcomp=0.60 / qpmin=0 / qpmax=69 / qpstep=4 / vbv_maxrate=25000 / vbv_bufsize=25000 / crf_max=0.0 / nal_hrd=vbr / ip_ratio=1.40 / aq=1:1.00
Encoded date : UTC 2013-01-04 23:20:12
Tagged date : UTC 2013-01-04 23:20:29

Audio
ID : 2
Format : AAC
Format/Info : Advanced Audio Codec
Format profile : LC
Codec ID : 40
Duration : 1h 21mn
Bit rate mode : Variable
Bit rate : 320 Kbps
Maximum bit rate : 333 Kbps
Channel(s) : 6 channels
Channel positions : Front: L C R, Side: L R, LFE
Sampling rate : 48.0 KHz
Compression mode : Lossy
Stream size : 188 MiB (11%)
Title : Èê~
Encoded date : UTC 2013-01-04 23:20:26
Tagged date : UTC 2013-01-04 23:20:29